# xmcd CD database file
#
# Track frame offsets:
#	150
#	11075
#	21079
#	34844
#	47683
#	58797
#	68567
#	80531
#	88071
#	98850
#	111116
#	120788
#	131609
#	144213
#	156455
#	168046
#	179697
#
# Disc length: 2505 seconds
#
# Revision: 0
# Processed by: cddbd v1.5.2PL0 Copyright (c) Steve Scherf et al.
# Submitted via: CDex 1.70beta2
#
DISCID=da09c711
DTITLE=Johnny Cash - Get Rhythm
DYEAR=2012
DGENRE=Country
TTITLE0=Cry Cry Cry
TTITLE1=Get Rhythm
TTITLE2=Don't Take Your Guns To Town
TTITLE3=Supper Time
TTITLE4=Don't Make Me Go
TTITLE5=The Rock Island Line
TTITLE6=Give My Love to Rose
TTITLE7=Come In Stranger
TTITLE8=Train Of Love
TTITLE9=Next In Line
TTITLE10=The Great Speckled Bird
TTITLE11=I Heard That Lonesome Whistle
TTITLE12=Folsom Prison Blues
TTITLE13=I Walk The Line
TTITLE14=So Doggone Lonesome
TTITLE15=Doin' My Time
TTITLE16=Country Boy
EXTD=YEAR: 2012
EXTT0=
EXTT1=
EXTT2=
EXTT3=
EXTT4=
EXTT5=
EXTT6=
EXTT7=
EXTT8=
EXTT9=
EXTT10=
EXTT11=
EXTT12=
EXTT13=
EXTT14=
EXTT15=
EXTT16=
PLAYORDER=
